<?xml version="1.0" encoding="UTF-8" standalone="no"?>
<!-- Created with Inkscape (http://www.inkscape.org/) -->

<svg
   width="338.66666mm"
   height="167.93463mm"
   viewBox="0 0 338.66666 167.93463"
   version="1.1"
   id="svg5"
   xml:space="preserve"
   inkscape:version="1.2.1 (9c6d41e410, 2022-07-14)"
   sodipodi:docname="rajz.svg"
   xmlns:inkscape="http://www.inkscape.org/namespaces/inkscape"
   xmlns:sodipodi="http://sodipodi.sourceforge.net/DTD/sodipodi-0.dtd"
   xmlns="http://www.w3.org/2000/svg"
   xmlns:svg="http://www.w3.org/2000/svg"><sodipodi:namedview
     id="namedview7"
     pagecolor="#ffffff"
     bordercolor="#000000"
     borderopacity="0.25"
     inkscape:showpageshadow="2"
     inkscape:pageopacity="0.0"
     inkscape:pagecheckerboard="0"
     inkscape:deskcolor="#d1d1d1"
     inkscape:document-units="mm"
     showgrid="false"
     inkscape:zoom="0.5946522"
     inkscape:cx="645.75562"
     inkscape:cy="309.42457"
     inkscape:window-width="1440"
     inkscape:window-height="837"
     inkscape:window-x="-8"
     inkscape:window-y="-8"
     inkscape:window-maximized="1"
     inkscape:current-layer="layer1" /><defs
     id="defs2" /><g
     inkscape:label="Réteg 1"
     inkscape:groupmode="layer"
     id="layer1"
     transform="translate(123.94965,-39.286329)"><path
       style="fill:#008080;stroke-width:0.264583;stroke:none;fill-opacity:1"
       d="m -66.448092,206.9932 c -1.44762,-0.61864 -0.920826,2.15422 -5.907153,-31.0933 -1.619033,-10.79529 -2.396697,-15.96874 -3.440242,-22.88646 -0.592704,-3.92906 -1.425919,-9.46547 -1.851589,-12.30313 -0.425669,-2.83765 -1.073483,-7.12615 -1.439582,-9.52999 -0.366101,-2.40384 -1.027327,-6.80105 -1.469392,-9.77157 -0.442064,-2.97052 -0.858666,-5.45586 -0.925783,-5.52298 -0.165629,-0.16562 -0.179149,-0.12216 -1.873898,6.02493 -0.820306,2.97537 -1.66973,5.68182 -1.887606,6.01435 -0.217877,0.33252 -0.830382,0.7252 -1.361123,0.87261 -0.608309,0.16897 -7.688403,0.26858 -19.15509,0.26951 l -18.1901,0.001 v -2.64393 -2.64393 l 17.36371,-0.068 17.363709,-0.068 3.024714,-10.98021 c 1.663594,-6.03911 3.19211,-11.23747 3.39671,-11.55191 0.552804,-0.84958 2.045099,-1.273742 2.939113,-0.8354 1.384107,0.67864 1.598819,1.34063 2.601799,8.02169 0.524301,3.4925 1.301766,8.67171 1.727697,11.50937 0.425929,2.83766 1.138209,7.60016 1.582838,10.58333 0.444633,2.98318 0.923563,6.13834 1.064289,7.01146 0.140727,0.87313 0.610376,3.96875 1.043662,6.87917 0.433287,2.91042 1.147266,7.67292 1.586617,10.58333 1.443434,9.56182 2.936192,19.52823 3.368463,22.48959 0.416854,2.85571 0.85512,4.40791 0.872379,3.08969 0.0044,-0.33796 0.184153,-2.71921 0.399396,-5.29167 0.403239,-4.81925 1.049798,-12.71675 1.985844,-24.25636 0.295103,-3.63802 0.654113,-8.04333 0.797806,-9.78958 0.143692,-1.74625 0.502703,-6.15156 0.797806,-9.78958 0.2951,-3.63803 0.774716,-9.53162 1.06581,-13.09688 0.523095,-6.40673 0.664493,-8.14617 1.968008,-24.209373 0.366075,-4.511146 0.784064,-9.630834 0.928862,-11.377084 0.144799,-1.74625 0.49979,-6.092031 0.788869,-9.657291 0.711597,-8.776235 1.503259,-18.462742 2.107959,-25.792282 l 0.501676,-6.080825 0.81947,-0.732196 c 1.284727,-1.147904 3.202393,-0.873692 3.974106,0.568266 0.141163,0.263766 0.736644,5.70477 1.323294,12.091118 0.586648,6.38635 1.544278,16.790763 2.128065,23.120919 0.583788,6.330156 1.655982,17.998281 2.382655,25.929168 0.726673,7.93088 1.669219,18.21056 2.094548,22.84372 0.425328,4.63316 0.836522,8.48712 0.913762,8.56436 0.07724,0.0772 0.473504,-0.41661 0.880586,-1.09746 3.119927,-5.21805 4.796407,-7.71737 5.371939,-8.00855 0.51721,-0.26168 6.079908,-0.3347 25.7291463,-0.33776 13.7880989,-0.002 25.0692707,-0.0844 25.0692707,-0.18282 0,-0.0984 -2.238365,-2.44989 -4.974143,-5.22552 -14.9284787,-15.14595 -22.650066,-27.662081 -24.771884,-40.15343 -0.434909,-2.560341 -0.581763,-8.074567 -0.274196,-10.295834 2.208083,-15.947008 12.8120487,-26.670895 28.258492,-28.578071 2.978721,-0.367784 8.868328,-0.158622 11.508353,0.408705 7.308686,1.570596 13.56614,5.457764 17.905235,11.122838 0.839116,1.095537 1.564934,1.991884 1.612932,1.991884 0.048,0 0.56983,-0.653221 1.159629,-1.451602 6.467962,-8.755358 16.126931,-13.144821 27.04379,-12.289895 16.284926,1.275311 27.976074,11.119011 30.932624,26.044622 0.60717,3.065195 0.48235,10.50294 -0.23369,13.925095 -2.05724,9.832115 -7.784082,20.363925 -17.229571,31.685658 -2.745441,3.2908 -9.768176,10.87203 -11.1417,12.02778 -0.47313,0.39811 -0.815519,0.76781 -0.760867,0.82155 0.05465,0.0537 12.422338,0.18509 27.483748,0.2919 22.31725,0.15826 27.48569,0.2604 27.93193,0.55201 0.30115,0.1968 1.53477,2.17391 2.74138,4.39358 1.2066,2.21967 2.28726,4.13647 2.40146,4.25957 0.2951,0.31808 0.38815,-0.4351 1.71107,-13.84985 1.81008,-18.35463 5.31055,-53.650344 6.48133,-65.352084 l 1.04563,-10.451042 0.8082,-0.727604 c 0.92498,-0.832754 2.19913,-0.962271 3.12017,-0.31716 1.12946,0.791112 0.95539,-0.47148 2.44216,17.713514 0.29745,3.638021 0.71678,8.787474 0.93186,11.443229 0.21508,2.655755 0.56703,7.001536 0.78211,9.657291 0.21508,2.655755 0.6318,7.775443 0.92604,11.377083 0.29425,3.601641 0.77386,9.495233 1.06582,13.096873 0.29195,3.60164 0.64839,7.97719 0.79209,9.72344 0.14369,1.74625 0.49755,6.09203 0.78637,9.65729 0.28882,3.56526 0.76395,9.39932 1.05584,12.96459 0.29192,3.56526 0.7701,9.45885 1.06262,13.09687 0.6314,7.85284 0.90379,11.16208 1.59996,19.43863 0.28726,3.41521 0.52229,6.77873 0.52229,7.47448 0,0.69576 0.11906,1.26501 0.26458,1.26501 0.14553,0 0.26459,-0.0923 0.26459,-0.20502 0,-0.36005 11.62468,-75.83703 11.77925,-76.48055 0.53665,-2.23429 3.79963,-2.53238 4.82147,-0.44047 0.14216,0.29104 1.54625,5.14284 3.12023,10.78177 l 2.86176,10.25261 h 15.43156 15.43156 v 2.65153 2.65154 l -16.92743,-0.0719 -16.92744,-0.0718 -0.67489,-0.67501 c -0.52512,-0.52521 -1.00026,-1.84554 -2.14099,-5.9495 -1.42777,-5.13662 -1.58885,-5.62162 -1.79075,-5.39198 -0.0807,0.0918 -0.8859,5.12656 -2.3237,14.53003 -0.14462,0.94589 -0.36555,2.37464 -0.49096,3.17501 -0.12542,0.80036 -0.47517,3.06255 -0.77722,5.02708 -7.99996,52.03232 -10.03697,64.8618 -10.36045,65.25184 -0.2038,0.24574 -0.76665,0.61237 -1.25081,0.81474 -0.78156,0.32669 -0.98923,0.31468 -1.85209,-0.10713 -0.53448,-0.26129 -1.10553,-0.77273 -1.26899,-1.13654 -0.16343,-0.3638 -0.55401,-3.87614 -0.86794,-7.8052 -0.31395,-3.92907 -0.68358,-8.45344 -0.82145,-10.05417 -0.13785,-1.60073 -0.49313,-5.94651 -0.78949,-9.65729 -0.29636,-3.71078 -0.77526,-9.63414 -1.06421,-13.16302 -0.93596,-11.43095 -1.58708,-19.41124 -1.98064,-24.27552 -0.75568,-9.33972 -1.18629,-14.64223 -1.70818,-21.03438 -0.29109,-3.56526 -0.7707,-9.45885 -1.06582,-13.09687 -0.29509,-3.63802 -0.65516,-8.043337 -0.80013,-9.789587 -0.14496,-1.74625 -0.57176,-6.925468 -0.94848,-11.509375 -0.37668,-4.583906 -0.72778,-8.378189 -0.7802,-8.431741 -0.17417,-0.177924 -0.35314,1.113898 -0.76491,5.521325 -0.48969,5.24143 -3.4707,35.546738 -3.86485,39.290628 -0.15322,1.4552 -0.73834,7.27603 -1.30029,12.93517 -1.11974,11.27636 -1.15204,11.40916 -2.8971,11.90964 -1.65214,0.47383 -2.30729,-0.14441 -4.63157,-4.37063 -4.03412,-7.33522 -6.04526,-10.95034 -6.1648,-11.08148 -0.0663,-0.0728 -13.69366,-0.19182 -30.282977,-0.26458 l -30.162383,-0.13229 -0.77193,-0.86407 c -0.511342,-0.57238 -0.77193,-1.14932 -0.77193,-1.70906 0,-0.75175 0.667583,-1.50308 6.049917,-6.80885 9.16327,-9.03292 14.01559,-14.71114 18.881635,-22.095441 6.190284,-9.393851 9.273603,-18.055534 9.280009,-26.069454 0.0097,-12.143897 -6.993594,-21.80321 -18.468853,-25.473209 -9.6741,-3.093956 -18.143138,-2.066327 -25.072387,3.04227 -2.26636,1.670879 -5.042966,4.675944 -6.559542,7.099263 -2.697374,4.310106 -2.722735,4.341544 -3.689945,4.574687 C 44.677909,61.194752 43.625195,60.758782 43.05764,59.714623 40.856958,55.665926 37.652393,51.755726 34.702673,49.519917 32.612309,47.935474 28.851172,46.147 26.03758,45.399541 c -1.930477,-0.51285 -2.885136,-0.589229 -7.376819,-0.590197 -4.463187,-9.53e-4 -5.4738,0.0784 -7.489555,0.588132 -9.2954471,2.350586 -15.7121487,8.433101 -18.7110947,17.736605 -3.7499873,11.633437 -0.434975,23.888788 10.3420094,38.233619 4.6426224,6.17963 10.2268153,12.24723 18.5706193,20.17826 4.027927,3.82865 4.167187,3.99647 4.167187,5.02153 0,1.36617 -0.563065,2.14761 -1.793737,2.4894 -0.647417,0.1798 -10.403763,0.27635 -28.5010537,0.28203 l -27.5166663,0.009 -1.609582,2.70481 c -4.024169,6.7624 -6.818823,11.22445 -7.407396,11.82693 -0.986637,1.00995 -2.574738,0.92002 -3.577807,-0.20261 -0.421669,-0.47194 -0.766673,-1.12527 -0.766673,-1.45185 0,-0.32658 -0.537091,-6.42665 -1.193533,-13.55572 -0.656444,-7.12907 -1.549852,-16.83147 -1.985351,-21.5609 -0.435501,-4.72943 -1.281745,-14.016303 -1.880544,-20.6375 -0.5988,-6.621198 -1.177703,-12.135681 -1.286452,-12.254405 -0.108747,-0.118726 -0.278945,0.893305 -0.378217,2.248959 -0.09927,1.35565 -0.410456,5.26279 -0.69152,8.682529 -0.666853,8.11371 -1.450462,17.713917 -2.111047,25.863017 -0.291954,3.60164 -0.648393,7.97719 -0.792086,9.72344 -0.143692,1.74625 -0.497557,6.09203 -0.786368,9.65729 -0.288811,3.56527 -0.768426,9.45886 -1.06581,13.09688 -0.297387,3.63802 -0.716677,8.78747 -0.931762,11.44323 -0.497012,6.13691 -1.003499,12.35862 -1.846951,22.68802 -0.368358,4.51114 -0.843737,10.34521 -1.056401,12.96458 -1.298663,15.99572 -1.191221,15.19767 -2.159556,16.04086 -0.72799,0.63392 -1.708631,0.77015 -2.649506,0.36807 z"
       id="path125" /></g></svg>
