<?xml version="1.0" encoding="UTF-8" standalone="no"?>
<!-- Created with Inkscape (http://www.inkscape.org/) -->

<svg
   width="338.66666mm"
   height="167.93387mm"
   viewBox="0 0 338.66666 167.93387"
   version="1.1"
   id="svg5"
   xml:space="preserve"
   inkscape:version="1.2.1 (9c6d41e410, 2022-07-14)"
   sodipodi:docname="szivritmus.svg"
   xmlns:inkscape="http://www.inkscape.org/namespaces/inkscape"
   xmlns:sodipodi="http://sodipodi.sourceforge.net/DTD/sodipodi-0.dtd"
   xmlns="http://www.w3.org/2000/svg"
   xmlns:svg="http://www.w3.org/2000/svg"><sodipodi:namedview
     id="namedview7"
     pagecolor="#ffffff"
     bordercolor="#000000"
     borderopacity="0.25"
     inkscape:showpageshadow="2"
     inkscape:pageopacity="0.0"
     inkscape:pagecheckerboard="0"
     inkscape:deskcolor="#d1d1d1"
     inkscape:document-units="mm"
     showgrid="false"
     inkscape:zoom="0.2102413"
     inkscape:cx="418.56666"
     inkscape:cy="765.78673"
     inkscape:window-width="1440"
     inkscape:window-height="837"
     inkscape:window-x="-8"
     inkscape:window-y="-8"
     inkscape:window-maximized="1"
     inkscape:current-layer="layer1" /><defs
     id="defs2" /><g
     inkscape:label="Réteg 1"
     inkscape:groupmode="layer"
     id="layer1"
     transform="translate(54.812153,53.7577)"><path
       style="fill:#008080;fill-opacity:1;stroke-width:0.264583"
       d="M 2.6894083,113.94877 C 1.2417883,113.33013 1.7685816,116.10299 -3.2177452,82.855467 -4.8367782,72.060176 -5.6144415,66.886731 -6.6579873,59.969009 -7.250691,56.039947 -8.0839062,50.503541 -8.5095758,47.665885 -8.9352454,44.828228 -9.5830592,40.53973 -9.9491578,38.13589 -10.315259,35.732047 -10.976485,31.334844 -11.41855,28.364322 c -0.442064,-2.97052 -0.858666,-5.455862 -0.925783,-5.522979 -0.165629,-0.165626 -0.179149,-0.122158 -1.873898,6.024928 -0.820306,2.975369 -1.66973,5.681824 -1.887606,6.014347 -0.217877,0.33252 -0.830382,0.725199 -1.361123,0.872617 -0.608309,0.168963 -7.688402,0.268578 -19.155089,0.269507 l -18.190104,0.0015 V 33.380311 30.73638 l 17.363711,-0.06805 17.363711,-0.06805 3.024714,-10.980208 c 1.663594,-6.039115 3.19211,-11.2374732 3.39671,-11.5519093 0.552804,-0.8495797 2.045099,-1.2737438 2.939113,-0.8354007 1.384107,0.6786404 1.598819,1.3406278 2.6017989,8.021685 0.5243009,3.4925 1.3017658,8.671719 1.7276973,11.509375 0.4259289,2.837656 1.1382084,7.600156 1.582838,10.583333 0.4446323,2.983177 0.9235625,6.138333 1.0642891,7.011458 0.1407266,0.873125 0.6103752,3.96875 1.0436622,6.879167 0.4332869,2.910416 1.1472651,7.672916 1.5866163,10.583333 1.4434343,9.561816 2.9361923,19.528228 3.3684632,22.489583 0.4168537,2.855716 0.8551201,4.407918 0.8723789,3.089693 0.00442,-0.337958 0.1841526,-2.719208 0.3993965,-5.291667 0.4032382,-4.81925 1.0497978,-12.716748 1.9858434,-24.256359 0.295103,-3.638021 0.6541134,-8.043333 0.797806,-9.789583 0.1436926,-1.74625 0.502703,-6.151563 0.797806,-9.789583 C 7.3995022,34.635156 7.8791177,28.741562 8.1702123,25.176302 8.6933067,18.769575 8.8347054,17.030136 10.13822,0.96692724 10.504295,-3.5442185 10.922284,-8.6639059 11.067082,-10.410156 c 0.144799,-1.74625 0.49979,-6.092031 0.788869,-9.657291 0.711597,-8.776235 1.503259,-18.462743 2.107959,-25.792282 l 0.501676,-6.080825 0.81947,-0.732196 c 1.284727,-1.147903 3.202393,-0.873692 3.974106,0.568266 0.141163,0.263766 0.736644,5.704769 1.323294,12.091118 0.586648,6.386349 1.544278,16.790762 2.128065,23.120919 0.583788,6.330156 1.655982,17.9982805 2.382655,25.9291657 0.726673,7.9308853 1.669219,18.2105583 2.094548,22.8437193 0.425328,4.633161 0.836522,8.487125 0.913762,8.564364 0.07724,0.07724 0.473504,-0.416615 0.880586,-1.097457 3.119927,-5.218054 4.796407,-7.717374 5.371939,-8.008556 0.51721,-0.261673 6.079908,-0.334695 25.729146,-0.337754 13.788099,-0.0021 25.069271,-0.08441 25.069271,-0.182822 0,-0.09841 -2.238365,-2.449891 -4.974143,-5.225521 C 65.249806,10.446757 57.528219,-2.0693702 55.406401,-14.56072 c -0.434909,-2.560341 -0.581763,-8.074567 -0.274196,-10.295834 2.208083,-15.947008 12.812048,-26.670894 28.258492,-28.57807 2.978721,-0.367784 8.868328,-0.158622 11.508353,0.408705 7.30869,1.570596 13.56614,5.457764 17.90524,11.122838 0.83911,1.095536 1.56493,1.991884 1.61293,1.991884 0.048,0 0.56983,-0.653221 1.15963,-1.451603 6.46796,-8.755357 16.12693,-13.14482 27.04379,-12.289894 16.28492,1.275312 27.97607,11.11901 30.93262,26.044622 0.60717,3.065195 0.48235,10.502939 -0.23369,13.925094 -2.05724,9.8321154 -7.78408,20.3639262 -17.22957,31.685661 -2.74544,3.290795 -9.76818,10.872031 -11.1417,12.027776 -0.47313,0.398113 -0.81552,0.76781 -0.76087,0.821552 0.0546,0.05374 12.42234,0.185095 27.48375,0.291899 22.31725,0.158258 27.48569,0.2604 27.93192,0.552011 0.30116,0.196802 1.53478,2.173912 2.74138,4.393581 1.20661,2.219666 2.28726,4.136471 2.40147,4.259569 0.2951,0.318079 0.38815,-0.435105 1.71107,-13.849853 1.81007,-18.3546293 5.31054,-53.650342 6.48132,-65.352082 l 1.04564,-10.451041 0.80819,-0.727604 c 0.92499,-0.832754 2.19914,-0.962271 3.12018,-0.31716 1.12945,0.791112 0.95539,-0.47148 2.44216,17.713514 0.29744,3.63802 0.71678,8.787473 0.93186,11.443229 0.21508,2.655755 0.56703,7.001536 0.78211,9.657291 0.21508,2.6557551 0.6318,7.7754425 0.92604,11.3770831 0.29424,3.6016406 0.77385,9.4952342 1.06582,13.0968749 0.29194,3.60164 0.64839,7.977187 0.79208,9.723437 0.1437,1.74625 0.49755,6.092031 0.78637,9.657292 0.28882,3.56526 0.76396,9.399322 1.05585,12.964583 0.29191,3.56526 0.7701,9.458854 1.06262,13.096874 0.6314,7.852844 0.90379,11.16208 1.59996,19.438633 0.28726,3.415207 0.52229,6.778723 0.52229,7.474479 0,0.695757 0.11906,1.265013 0.26458,1.265013 0.14552,0 0.26458,-0.09226 0.26458,-0.205026 0,-0.360045 11.62468,-75.837024 11.77925,-76.4805439 0.53666,-2.2342924 3.79963,-2.5323852 4.82148,-0.4404704 0.14216,0.2910417 1.54625,5.1428383 3.12023,10.7817703 l 2.86176,10.252604 h 15.43156 15.43156 v 2.651538 2.651538 l -16.92744,-0.07185 -16.92743,-0.07185 -0.6749,-0.67501 c -0.52512,-0.525211 -1.00026,-1.84554 -2.14098,-5.949503 -1.42777,-5.136621 -1.58885,-5.62162 -1.79075,-5.39198 -0.0807,0.09181 -0.88591,5.126566 -2.32371,14.530035 -0.14462,0.945885 -0.36554,2.374635 -0.49096,3.175 -0.12541,0.800364 -0.47516,3.062552 -0.77721,5.027083 -7.99997,52.032322 -10.03697,64.861801 -10.36045,65.251841 -0.20381,0.24574 -0.76665,0.61237 -1.25082,0.81474 -0.78155,0.32669 -0.98922,0.31468 -1.85208,-0.10713 -0.53448,-0.26129 -1.10553,-0.77273 -1.26899,-1.13654 -0.16344,-0.3638 -0.55401,-3.87614 -0.86794,-7.8052 -0.31396,-3.929066 -0.68358,-8.453441 -0.82145,-10.05417 -0.13785,-1.600729 -0.49313,-5.946511 -0.78949,-9.657292 -0.29636,-3.710781 -0.77526,-9.63414 -1.06421,-13.16302 -0.93597,-11.430947 -1.58708,-19.411236 -1.98065,-24.275521 -0.75567,-9.339712 -1.18628,-14.642229 -1.70817,-21.034374 -0.2911,-3.565261 -0.77071,-9.458854 -1.06582,-13.096875 -0.29509,-3.6380207 -0.65516,-8.0433332 -0.80013,-9.7895831 -0.14497,-1.74624998 -0.57176,-6.9254686 -0.94848,-11.5093748 -0.37669,-4.5839061 -0.72779,-8.3781901 -0.7802,-8.4317411 -0.17418,-0.177925 -0.35314,1.113898 -0.76491,5.521324 -0.48969,5.2414306 -3.4707,35.546742 -3.86485,39.290625 -0.15322,1.455208 -0.73835,7.276036 -1.30029,12.935174 -1.11974,11.276362 -1.15204,11.409159 -2.89711,11.909637 -1.65214,0.473829 -2.30729,-0.144412 -4.63156,-4.370631 -4.03412,-7.335218 -6.04527,-10.950337 -6.1648,-11.081472 -0.0663,-0.07276 -13.69367,-0.191823 -30.28298,-0.264583 l -30.16238,-0.132292 -0.77193,-0.864071 c -0.51134,-0.572376 -0.77193,-1.149321 -0.77193,-1.70906 0,-0.75175 0.66758,-1.503077 6.04992,-6.808846 9.16327,-9.03292 14.01559,-14.711145 18.88163,-22.0954435 6.19029,-9.3938511 9.27361,-18.0555345 9.28001,-26.0694535 0.01,-12.143897 -6.99359,-21.80321 -18.46885,-25.47321 -9.6741,-3.093956 -18.14314,-2.066327 -25.07239,3.042271 -2.26636,1.670878 -5.04297,4.675944 -6.55954,7.099262 -2.69738,4.310107 -2.72274,4.341545 -3.68995,4.574688 -1.23493,0.297676 -2.28764,-0.138294 -2.8552,-1.182453 -2.20068,-4.048697 -5.40525,-7.958897 -8.35497,-10.194706 -2.09036,-1.584443 -5.851498,-3.372917 -8.66509,-4.120376 -1.930477,-0.51285 -2.885136,-0.58923 -7.376819,-0.590198 -4.463188,-9.52e-4 -5.473801,0.0784 -7.489555,0.588133 -9.295447,2.350586 -15.712149,8.4331 -18.711095,17.736605 -3.749987,11.633437 -0.434975,23.8887882 10.342009,38.2336205 4.642623,6.1796245 10.226815,12.2472315 18.57062,20.1782545 4.027927,3.828658 4.167187,3.99647 4.167187,5.021529 0,1.366174 -0.563065,2.147613 -1.793737,2.489404 -0.647417,0.179806 -10.403763,0.276349 -28.501054,0.28203 l -27.516666,0.0087 -1.609582,2.704814 c -4.024169,6.762398 -6.818823,11.224445 -7.407396,11.826925 -0.986637,1.009952 -2.574738,0.920017 -3.577807,-0.20261 -0.421669,-0.471942 -0.766673,-1.12527 -0.766673,-1.451851 0,-0.326577 -0.537091,-6.426652 -1.193533,-13.55572 C 21.654535,28.495632 20.761127,18.793229 20.325628,14.063802 19.890127,9.334375 19.043883,0.04750018 18.445084,-6.5736976 c -0.5988,-6.6211974 -1.177703,-12.1356804 -1.286452,-12.2544044 -0.108747,-0.118726 -0.278945,0.893305 -0.378217,2.248958 -0.09927,1.355651 -0.410456,5.26279 -0.69152,8.6825297 -0.666853,8.11370974 -1.450462,17.7139174 -2.111047,25.8630203 -0.291954,3.601641 -0.648393,7.977187 -0.792086,9.723437 -0.143692,1.74625 -0.497557,6.092032 -0.786368,9.657292 -0.288811,3.56526 -0.768426,9.458854 -1.06581,13.096875 -0.297387,3.63802 -0.716677,8.787473 -0.931762,11.443229 C 9.90481,68.024151 9.3983234,74.245857 8.5548715,84.575259 8.1865133,89.086405 7.7111337,94.920467 7.4984696,97.539842 6.1998073,113.53556 6.3072493,112.73751 5.338914,113.5807 c -0.7279904,0.63392 -1.7086315,0.77014 -2.6495057,0.36807 z"
       id="path856" /></g></svg>
